PathFileType	4	(X/Y/Z)	 s07c0301.trc
DataRate	CameraRate	NumFrames	NumMarkers	Units	OrigDataRate	OrigDataStartFrame	OrigNumFrames
200	200	6	48	mm	200	501	2000
Frame#	Time	racr			lacr			c7			jug			rlel			rdr			llel			ldr			s2			lic			ric			lasi			rasi			rpsi			lpsi			rgt			lgt			rth1			rth2			rth3			rth4			rlfc			rmfc			rsh1			rsh2			rsh3			rsh4			rlmal			rcal			rtoe			rmt5			lth1			lth2			lth4			lth3			llfc			lmfc			lsh1			lsh2			lsh3			lsh4			llmal			lcal			ltoe			lmt5			SBIKE			LBIKE			RBIKE			
		X1	Y1	Z1	X2	Y2	Z2	X3	Y3	Z3	X4	Y4	Z4	X5	Y5	Z5	X6	Y6	Z6	X7	Y7	Z7	X8	Y8	Z8	X9	Y9	Z9	X10	Y10	Z10	X11	Y11	Z11	X12	Y12	Z12	X13	Y13	Z13	X14	Y14	Z14	X15	Y15	Z15	X16	Y16	Z16	X17	Y17	Z17	X18	Y18	Z18	X19	Y19	Z19	X20	Y20	Z20	X21	Y21	Z21	X22	Y22	Z22	X23	Y23	Z23	X24	Y24	Z24	X25	Y25	Z25	X26	Y26	Z26	X27	Y27	Z27	X28	Y28	Z28	X29	Y29	Z29	X30	Y30	Z30	X31	Y31	Z31	X32	Y32	Z32	X33	Y33	Z33	X34	Y34	Z34	X35	Y35	Z35	X36	Y36	Z36	X37	Y37	Z37	X38	Y38	Z38	X39	Y39	Z39	X40	Y40	Z40	X41	Y41	Z41	X42	Y42	Z42	X43	Y43	Z43	X44	Y44	Z44	X45	Y45	Z45	X46	Y46	Z46	X47	Y47	Z47	X48	Y48	Z48	
501	2.5050	709.638050	1459.307972	-9.959951	781.218749	1440.196200	-304.106444	735.537920	1502.805861	-160.818754	680.109670	1361.908585	-169.620118	537.085971	1137.802550	23.590900	726.219933	923.543097	-58.043363	619.250581	1168.826010	-485.092851	731.332306	908.539975	-400.018307	172.363899	1310.985031	-335.822018	371.675949	1314.737603	-434.229389	299.166391	1342.956048	-153.832301	375.701280	1234.482234	-398.241511	316.907119	1291.586529	-166.227586	193.302878	1352.024027	-285.353996	233.024745	1342.822247	-388.069798	229.598624	1239.029299	-113.166496	281.970388	1162.754607	-462.808397	336.337706	1134.005720	-81.128584	409.065010	1084.688561	-73.449865	448.231626	1010.487344	-59.572225	436.472321	1106.920898	-85.685923	531.914346	885.846180	-72.757065	535.790023	869.176339	-177.760281	438.364582	778.018448	-53.966975	396.129636	702.925516	-73.468036	321.397781	656.350964	-73.732252	410.417612	694.650232	-111.061340	221.544586	557.828622	-78.698108	143.478758	536.598091	-109.004878	418.597107	444.148241	-116.734039	333.533119	430.389427	-46.855055	305.042217	1044.358262	-452.741153	340.145625	966.843846	-431.701172	368.818327	974.347140	-410.073409	333.072894	878.044660	-424.097106	329.354786	704.780331	-391.383185	300.834395	696.265135	-302.359457	235.398210	589.086003	-418.656631	201.100100	512.414491	-399.885505	131.502085	455.594777	-410.381149	199.675548	516.612969	-357.564319	43.832411	349.589656	-409.697495	-35.931912	361.122060	-376.647450	171.409673	160.063199	-348.601477	106.784069	196.756876	-416.220080	-260.004222	976.022429	-231.716047	-76.670460	84.071590	-437.667340	-83.269776	79.960436	-40.045459	
502	2.5100	709.820759	1454.520791	-9.945725	780.915079	1437.240570	-305.009394	736.444099	1498.625612	-160.642859	679.526173	1358.453719	-170.370015	533.814259	1135.084578	22.240849	725.940243	923.768658	-58.335885	617.068493	1167.508899	-486.044925	731.312648	908.907459	-400.702533	172.079234	1311.478367	-336.928419	371.026889	1315.761292	-435.034140	298.550922	1342.065364	-154.084804	375.148301	1235.260281	-399.087690	316.530575	1291.211772	-166.583335	193.195836	1352.262616	-286.199270	232.553228	1343.355036	-388.701286	228.174493	1238.762809	-114.232902	282.414616	1162.923058	-463.917309	333.924764	1132.460685	-81.654975	405.659535	1081.871497	-74.783860	443.859978	1007.278522	-59.841737	433.742950	1103.949738	-85.713273	526.930713	881.792494	-72.667250	531.093918	865.243762	-177.631943	434.868812	771.822358	-54.102908	394.246113	695.828293	-73.974231	320.629757	647.774883	-74.451600	408.595547	687.609149	-111.854361	223.095356	547.524017	-79.975824	145.576847	524.092438	-110.657029	423.883416	439.988351	-114.899256	338.405228	423.867871	-46.127833	307.641240	1044.962559	-452.120011	344.845169	968.278180	-430.363104	373.119289	976.980130	-410.003724	339.699123	879.501518	-422.359914	338.113219	706.206089	-388.864235	310.372454	698.210602	-299.093364	241.353581	592.453875	-415.950107	205.099952	516.616233	-397.472414	134.077900	461.509332	-408.143512	203.833538	520.597462	-355.155401	44.261139	357.392609	-408.494138	-36.439953	371.553559	-375.864838	164.995276	163.802745	-348.587469	101.388550	203.034713	-415.970861	-259.876660	976.058396	-231.382591	-76.654079	84.152702	-437.634236	-83.261939	79.955959	-40.049336	
503	2.5150	709.730375	1449.917445	-9.768440	780.525136	1434.265591	-306.147963	737.135493	1494.554889	-160.429226	679.047663	1354.887301	-171.537644	530.416197	1132.295147	20.764172	725.555668	923.941398	-58.618173	614.918119	1166.078197	-486.981811	730.784207	908.905404	-400.676162	171.723738	1311.559307	-337.898184	370.276025	1316.336193	-435.668987	298.172363	1340.742650	-154.265096	374.480983	1235.902397	-399.972792	316.365198	1290.336345	-166.647386	193.029738	1352.180396	-286.913322	232.072067	1343.637082	-389.307380	226.916047	1238.036506	-115.217781	282.751119	1162.908722	-464.928510	331.808240	1130.590592	-82.187301	402.860584	1078.999915	-75.062676	440.038944	1003.859715	-60.106907	431.118114	1100.910710	-85.850273	521.779103	877.157916	-72.604385	526.169995	860.701147	-177.624190	431.345110	765.130997	-54.289401	392.462658	688.180934	-74.550998	319.856526	638.665339	-75.434795	407.433163	680.757700	-112.150158	224.386003	536.914740	-81.548269	148.202071	511.268941	-111.664057	428.893075	435.143514	-114.098639	343.329104	416.676584	-45.853740	309.795685	1045.403261	-451.367427	349.029385	969.668080	-429.563040	377.443298	979.264409	-409.963733	345.741180	880.955577	-420.447274	346.223028	707.828643	-386.391544	318.677100	700.120219	-296.059404	247.111027	595.608033	-413.075680	208.259590	520.890575	-394.948108	136.634853	467.498800	-406.162458	207.719519	524.472224	-352.729944	44.607442	365.443369	-407.389347	-37.111763	381.855503	-375.213723	158.768842	167.984634	-348.608609	96.327775	209.635759	-415.725437	-259.752054	976.094538	-230.985222	-76.627144	84.207285	-437.603328	-83.245297	79.917534	-40.003723	
504	2.5200	709.413202	1445.616599	-9.413388	780.349970	1431.327861	-307.504409	737.579542	1490.645325	-160.205012	678.822030	1351.395138	-172.627496	526.914053	1129.503266	19.111403	725.044635	924.136514	-58.824326	612.890907	1164.700275	-487.871937	730.111205	908.725740	-400.467737	171.368752	1311.257621	-338.788851	369.600300	1316.726969	-436.258072	297.938660	1339.173335	-154.451819	373.838414	1236.127580	-400.911756	316.433854	1289.339564	-166.537024	192.822054	1351.702152	-287.629948	231.463896	1343.558074	-389.736863	225.773198	1236.965205	-116.117371	282.890305	1162.616192	-465.880421	329.999468	1128.330227	-82.561949	400.338465	1075.971444	-75.319433	436.598348	1000.293065	-60.158222	429.010999	1097.345813	-86.348423	516.809481	871.958159	-72.661906	521.142069	855.669900	-177.609480	427.800236	758.053708	-54.558560	391.041932	679.980122	-74.915851	319.134840	629.346322	-76.348165	404.632613	672.771393	-113.481988	225.949285	526.216890	-82.128597	150.630258	498.110694	-112.283638	433.743974	430.481933	-113.957604	348.400349	409.733304	-45.751842	311.656053	1045.750655	-450.889067	352.638617	970.944740	-428.968710	381.346259	981.263703	-410.254997	351.032109	882.329188	-418.515924	353.913090	709.467845	-383.630087	326.961933	701.937701	-292.692342	252.750663	598.741626	-410.336587	211.756681	525.130629	-392.634781	138.942967	473.362415	-404.252179	211.534516	528.282446	-350.448096	44.836820	373.246715	-406.484042	-37.922753	392.033654	-374.672955	152.736722	172.687229	-348.558528	91.612277	216.545731	-415.490403	-259.613176	976.141711	-230.632980	-76.617259	84.250095	-437.578826	-83.220958	79.920763	-39.977292	
505	2.5250	709.054999	1441.381091	-9.080153	780.264784	1428.518340	-308.915293	737.829698	1486.947084	-160.092086	678.647295	1347.958014	-173.898688	523.453245	1126.685116	17.349710	724.493036	924.427327	-59.053400	610.969448	1163.332016	-488.660364	729.418721	908.448099	-400.276024	170.936742	1310.523460	-339.427232	368.843496	1316.709353	-436.949302	297.784277	1337.439881	-154.555102	373.137897	1236.035502	-401.729535	316.452236	1288.309765	-166.319120	192.542151	1350.794757	-287.975507	230.448566	1342.884739	-389.727897	224.793691	1235.531227	-116.878040	282.773475	1162.265778	-466.666850	328.452398	1125.735009	-82.683248	398.254895	1072.545465	-75.471634	433.560551	996.555240	-60.174994	426.979639	1093.583614	-86.750979	511.848243	866.428466	-72.765679	516.127176	850.140755	-177.419901	424.430086	750.987310	-54.918916	389.286788	672.076297	-75.082460	318.461349	620.064316	-76.760943	403.437195	665.336223	-113.573955	227.683875	515.302808	-82.654644	153.039451	485.219751	-112.804714	437.360160	424.394634	-113.585227	352.954427	402.052072	-45.561085	313.082823	1045.838476	-450.519316	355.723238	971.945922	-428.654525	384.796462	982.875023	-411.005391	355.680515	883.482174	-416.645241	361.289183	710.893431	-380.605486	334.628442	703.548889	-289.388771	257.813957	601.943701	-407.563876	214.995790	529.210028	-390.298765	140.917184	479.297063	-402.557287	214.710954	532.230394	-348.148756	44.575441	381.367743	-405.679829	-38.848334	402.093776	-374.221385	147.152085	178.167237	-348.444257	87.251401	223.750423	-415.272296	-259.478386	976.197689	-230.402414	-76.620620	84.288747	-437.566525	-83.212628	79.905530	-39.969055	
506	2.5300	708.763021	1437.193868	-8.826122	780.067860	1425.938589	-310.330760	737.874715	1483.520268	-160.007598	678.658019	1344.550204	-175.199731	519.967884	1123.927352	15.378320	723.917118	924.753852	-59.348739	609.325145	1162.045801	-489.284228	729.016452	908.219699	-400.321792	170.479035	1309.643892	-339.951217	368.056644	1316.320421	-437.430670	297.679696	1335.407578	-154.530901	372.299441	1235.488782	-402.710544	316.413899	1286.496193	-166.535798	192.144754	1349.726167	-288.208801	229.801011	1342.156334	-390.055052	224.086681	1233.882181	-117.377871	282.468363	1161.674933	-467.532641	327.134994	1122.604937	-82.760839	396.364674	1068.829408	-75.613572	430.932926	992.440472	-60.267146	425.192688	1089.439825	-87.256961	506.982738	860.824728	-72.873362	511.236884	843.025434	-171.819453	421.069581	743.991752	-54.860388	387.516853	664.233825	-74.962546	317.810060	610.959687	-76.756182	411.958206	660.074657	-107.704242	229.144203	503.911438	-83.117700	155.289541	472.454758	-113.094838	441.079397	417.407017	-113.059034	356.671177	393.431869	-45.357002	314.017083	1045.510388	-449.997677	358.224029	972.581872	-428.479515	387.687522	984.111099	-412.092307	359.684938	884.312190	-415.094594	368.102601	711.873384	-377.188519	341.642759	705.123051	-285.984690	262.366370	605.193238	-404.858499	217.695556	533.364872	-388.130676	142.404430	485.461351	-400.971883	217.928331	535.729935	-346.491692	43.883085	389.719821	-404.961130	-39.863917	412.041633	-373.837864	141.996474	184.415646	-348.379458	83.253940	231.235164	-415.077191	-259.375683	976.235133	-230.291540	-76.608732	84.291644	-437.553855	-83.206347	79.900723	-39.955856	
